<svg width="316" height="207" viewBox="0 0 316 207" fill="none" xmlns="http://www.w3.org/2000/svg">
<g clip-path="url(#clip0_79_52)">
<path d="M229.191 99.5163C229.648 99.1735 230.168 98.9456 230.714 98.8487C231.26 98.7518 231.818 98.7883 232.35 98.9555C232.882 99.1228 233.374 99.4168 233.791 99.8168C234.209 100.217 234.542 100.713 234.768 101.271L243.406 101.019L244.825 106.78L232.621 106.946C231.748 107.302 230.787 107.292 229.92 106.917C229.053 106.543 228.341 105.83 227.918 104.914C227.495 103.998 227.391 102.943 227.626 101.948C227.86 100.953 228.417 100.088 229.191 99.5163Z" fill="#FFB8B8"/>
<path d="M238.88 108.725C238.341 108.171 238.014 107.411 237.965 106.6L237.619 100.873C237.587 100.349 237.673 99.8242 237.869 99.3455C238.065 98.8668 238.365 98.449 238.742 98.1294L252.669 86.3111L260.765 75.4571C261.586 74.3601 262.753 73.6494 264.031 73.4694C265.309 73.2894 266.601 73.6536 267.645 74.488C268.188 74.9234 268.647 75.4738 268.995 76.107C269.344 76.7402 269.575 77.4436 269.675 78.1764C269.776 78.9092 269.743 79.6566 269.579 80.3753C269.416 81.094 269.124 81.7695 268.722 82.3627L259.292 96.2676L252.579 104.12C250.444 106.605 247.649 108.274 244.599 108.887L241.359 109.53C240.959 109.609 240.548 109.594 240.154 109.486C239.759 109.378 239.389 109.179 239.069 108.903C239.003 108.846 238.94 108.787 238.88 108.725Z" fill="#8E8E8E"/>
<path d="M302.696 198.375L298.223 199.609L291.785 181.14L298.387 179.319L302.696 198.375Z" fill="#FFB8B8"/>
<path d="M294.709 199.079L303.335 196.699L304.692 202.698L290.634 206.576C290.455 205.788 290.419 204.969 290.528 204.166C290.636 203.363 290.887 202.591 291.265 201.895C291.644 201.199 292.143 200.592 292.733 200.108C293.324 199.625 293.995 199.275 294.709 199.079Z" fill="#2F2E41"/>
<path d="M262.325 201.847L257.715 201.847L255.523 182.206L262.327 182.206L262.325 201.847Z" fill="#FFB8B8"/>
<path d="M254.422 200.392H263.313V206.575H248.824C248.824 205.763 248.969 204.959 249.25 204.209C249.531 203.459 249.944 202.777 250.463 202.203C250.983 201.629 251.6 201.173 252.28 200.862C252.959 200.552 253.687 200.392 254.422 200.392Z" fill="#2F2E41"/>
<path d="M260.327 60.0781C265.797 60.0781 270.232 55.1801 270.232 49.1381C270.232 43.096 265.797 38.198 260.327 38.198C254.856 38.198 250.422 43.096 250.422 49.1381C250.422 55.1801 254.856 60.0781 260.327 60.0781Z" fill="#FFB8B8"/>
<path d="M260.308 49.5259C260.326 48.0627 262.606 47.8793 263.316 49.1265C264.026 50.3736 263.571 52.0007 262.945 53.2994C262.294 54.6513 261.449 56.0166 261.579 57.5521C261.624 57.9397 261.757 58.3084 261.965 58.624C262.174 58.9397 262.451 59.1919 262.772 59.3572C263.092 59.5225 263.445 59.5956 263.798 59.5695C264.151 59.5435 264.492 59.4193 264.79 59.2084C268.026 57.0081 270.757 53.8053 271.965 49.9021C273.236 45.7968 272.601 40.9031 269.852 37.749C267.103 34.5949 262.176 33.7028 258.913 36.2242L253.344 32.0348C253.213 31.9328 253.056 31.8781 252.896 31.8783C252.735 31.8784 252.579 31.9334 252.448 32.0356C252.317 32.1379 252.218 32.2824 252.164 32.4493C252.111 32.6162 252.105 32.7974 252.148 32.968L252.962 35.8912L250.15 35.1096C250.03 35.0728 249.903 35.0769 249.785 35.1213C249.667 35.1657 249.564 35.2483 249.49 35.3583C249.415 35.4684 249.372 35.6007 249.367 35.7381C249.361 35.8754 249.394 36.0114 249.459 36.1281L250.425 37.7852C249.137 36.6149 246.912 37.9486 246.728 39.7535C246.543 41.5583 247.871 43.2221 249.433 43.902C250.995 44.5819 252.739 44.5045 254.421 44.4165C254.24 45.3154 254.32 46.2546 254.65 47.1004C254.98 47.9461 255.543 48.6553 256.259 49.1269C257.714 50.0582 259.723 49.8387 260.308 49.5259Z" fill="#2F2E41"/>
<path d="M262.453 193.553C262.434 193.553 262.415 193.553 262.396 193.552L255.275 193.307C255.033 193.298 254.795 193.237 254.575 193.125C254.355 193.014 254.158 192.855 253.994 192.658C253.831 192.462 253.705 192.231 253.623 191.979C253.541 191.728 253.506 191.461 253.519 191.194L257.081 118.961L284.447 127.533L302.393 189.35C302.479 189.646 302.501 189.961 302.458 190.268C302.415 190.576 302.308 190.868 302.145 191.122C301.982 191.376 301.768 191.584 301.519 191.731C301.271 191.877 300.995 191.958 300.713 191.966L292.511 192.207C292.141 192.215 291.777 192.099 291.467 191.874C291.158 191.649 290.917 191.326 290.778 190.947L272.319 139.949C272.27 139.812 272.181 139.698 272.067 139.623C271.953 139.547 271.819 139.516 271.687 139.533C271.555 139.55 271.432 139.615 271.336 139.717C271.241 139.82 271.179 139.954 271.159 140.099L264.248 191.841C264.184 192.317 263.968 192.751 263.639 193.065C263.309 193.38 262.889 193.553 262.453 193.553Z" fill="#2F2E41"/>
<path d="M283.119 137.083C281.175 137.082 279.282 136.402 277.708 135.141L268.902 128.12C266.97 126.583 264.732 125.581 262.376 125.199L258.138 124.516C257.488 124.413 256.895 124.047 256.476 123.488C256.057 122.929 255.84 122.218 255.869 121.493L257.558 76.8395L256.556 70.4739C256.475 69.9549 256.53 69.4212 256.715 68.936C256.901 68.4509 257.208 68.0346 257.601 67.7365L265.45 61.8055C266.068 61.3388 266.812 61.1196 267.559 61.1842L267.846 61.2092C268.649 61.2787 269.413 61.6255 270.028 62.2007C270.644 62.7759 271.08 63.5502 271.275 64.4142L271.575 65.7437L276.797 75.9965C278.34 79.0265 279.5 82.2759 280.244 85.6538L285.194 108.121C285.624 110.075 285.922 112.063 286.085 114.066L287.725 134.27C287.762 134.707 287.67 135.146 287.462 135.52C287.254 135.894 286.941 136.184 286.572 136.345C285.474 136.832 284.302 137.082 283.119 137.083Z" fill="#8E8E8E"/>
<path d="M266.693 120.902C266.585 120.303 266.597 119.685 266.729 119.092C266.861 118.499 267.109 117.945 267.455 117.47C267.802 116.994 268.238 116.608 268.735 116.339C269.231 116.069 269.774 115.924 270.327 115.912L273.481 107.025L278.837 107.825L274.224 120.305C274.181 121.332 273.798 122.306 273.149 123.042C272.499 123.778 271.627 124.225 270.699 124.298C269.77 124.372 268.85 124.067 268.111 123.441C267.373 122.815 266.868 121.912 266.693 120.902Z" fill="#FFB8B8"/>
<path d="M278.145 114.631C277.473 114.963 276.712 115 276.016 114.734L271.106 112.856C270.656 112.684 270.252 112.393 269.929 112.007C269.606 111.622 269.375 111.154 269.255 110.645L264.822 91.875L258.923 79.4126C258.328 78.1508 258.19 76.6859 258.537 75.3157C258.885 73.9456 259.691 72.773 260.794 72.0362C261.368 71.6534 262.006 71.4006 262.67 71.2925C263.333 71.1844 264.01 71.2231 264.66 71.4064C265.31 71.5898 265.921 71.9141 266.456 72.3605C266.992 72.8068 267.442 73.3664 267.78 74.0065L275.704 89.0141L279.639 98.9015C280.88 102.04 281.184 105.534 280.507 108.876L279.781 112.421C279.692 112.859 279.519 113.271 279.276 113.631C279.032 113.99 278.722 114.289 278.367 114.508C278.294 114.552 278.22 114.593 278.145 114.631Z" fill="#8E8E8E"/>
<path d="M225.835 151.846H7.1197C5.35553 151.843 3.66418 151.068 2.41673 149.691C1.16927 148.313 0.46757 146.445 0.465576 144.496V8.28558H232.489V144.496C232.487 146.445 231.785 148.313 230.538 149.691C229.29 151.068 227.599 151.843 225.835 151.846Z" fill="#E6E6E6"/>
<path d="M217.131 137.778H15.8236C14.9148 137.776 14.0435 137.377 13.4009 136.667C12.7583 135.958 12.3968 134.995 12.3958 133.991V26.1393C12.3968 25.1355 12.7583 24.1732 13.4009 23.4634C14.0435 22.7536 14.9148 22.3543 15.8236 22.3532H217.131C218.04 22.3543 218.911 22.7536 219.554 23.4634C220.196 24.1732 220.558 25.1355 220.559 26.1393V133.991C220.558 134.995 220.196 135.958 219.554 136.667C218.911 137.377 218.04 137.776 217.131 137.778Z" fill="white"/>
<path d="M232.955 13.2503H0V7.34949C0.00199174 5.40096 0.70369 3.53287 1.95115 2.15505C3.19861 0.777227 4.88995 0.00219988 6.65413 0H226.3C228.065 0.00220106 229.756 0.777227 231.003 2.15505C232.251 3.53287 232.953 5.40096 232.955 7.34949V13.2503Z" fill="#8E8E8E"/>
<path d="M67.0455 43.5205H31.214C30.3051 43.5212 29.4335 43.9203 28.7908 44.6302C28.1481 45.3401 27.7867 46.3027 27.7861 47.3066V73.3194C27.7867 74.3233 28.1481 75.2859 28.7908 75.9958C29.4335 76.7057 30.3051 77.1048 31.214 77.1055H67.0455C67.9543 77.1041 68.8254 76.7047 69.468 75.995C70.1106 75.2853 70.4721 74.3231 70.4734 73.3194V47.3066C70.4721 46.3029 70.1106 45.3407 69.468 44.631C68.8254 43.9213 67.9543 43.5219 67.0455 43.5205Z" fill="#8E8E8E"/>
<path d="M134.393 43.5205H98.5617C97.6527 43.5212 96.7812 43.9203 96.1385 44.6302C95.4957 45.3401 95.1344 46.3027 95.1338 47.3066V73.3194C95.1344 74.3233 95.4957 75.2859 96.1385 75.9958C96.7812 76.7057 97.6527 77.1048 98.5617 77.1055H134.393C135.302 77.1041 136.173 76.7047 136.816 75.995C137.458 75.2853 137.82 74.3231 137.821 73.3194V47.3066C137.82 46.3029 137.458 45.3407 136.816 44.631C136.173 43.9213 135.302 43.5219 134.393 43.5205Z" fill="#8E8E8E"/>
<path d="M201.741 43.5205H165.91C165.001 43.5212 164.129 43.9203 163.486 44.6302C162.844 45.3401 162.482 46.3027 162.482 47.3066V73.3194C162.482 74.3233 162.844 75.2859 163.486 75.9958C164.129 76.7057 165.001 77.1048 165.91 77.1055H201.741C202.65 77.1041 203.521 76.7047 204.164 75.995C204.806 75.2853 205.168 74.3231 205.169 73.3194V47.3066C205.168 46.3029 204.806 45.3407 204.164 44.631C203.521 43.9213 202.65 43.5219 201.741 43.5205Z" fill="#8E8E8E"/>
<path d="M61.9762 89.3992H36.2832C35.7778 89.3992 35.2931 89.6209 34.9358 90.0156C34.5784 90.4103 34.3777 90.9456 34.3777 91.5038C34.3777 92.062 34.5784 92.5973 34.9358 92.992C35.2931 93.3867 35.7778 93.6084 36.2832 93.6084H61.9762C62.4815 93.6084 62.9662 93.3867 63.3236 92.992C63.6809 92.5973 63.8817 92.062 63.8817 91.5038C63.8817 90.9456 63.6809 90.4103 63.3236 90.0156C62.9662 89.6209 62.4815 89.3992 61.9762 89.3992Z" fill="#E6E6E6"/>
<path d="M61.9762 100.9H36.2832C35.847 100.899 35.4238 101.064 35.0843 101.366C34.7448 101.668 34.5096 102.09 34.418 102.561C34.3264 103.032 34.3839 103.524 34.5809 103.953C34.778 104.383 35.1027 104.725 35.5006 104.922C35.7463 105.046 36.0132 105.11 36.2832 105.109H61.9762C62.4815 105.109 62.9662 104.888 63.3236 104.493C63.6809 104.098 63.8817 103.563 63.8817 103.005C63.8817 102.446 63.6809 101.911 63.3236 101.516C62.9662 101.122 62.4815 100.9 61.9762 100.9Z" fill="#E6E6E6"/>
<path d="M61.9762 112.401H36.2832C35.7778 112.401 35.2931 112.623 34.9358 113.017C34.5784 113.412 34.3777 113.947 34.3777 114.506C34.3777 115.064 34.5784 115.599 34.9358 115.994C35.2931 116.388 35.7778 116.61 36.2832 116.61H61.9762C62.4815 116.61 62.9662 116.388 63.3236 115.994C63.6809 115.599 63.8817 115.064 63.8817 114.506C63.8817 113.947 63.6809 113.412 63.3236 113.017C62.9662 112.623 62.4815 112.401 61.9762 112.401Z" fill="#E6E6E6"/>
<path d="M129.324 89.3992H103.631C103.126 89.3992 102.641 89.6209 102.284 90.0156C101.926 90.4103 101.726 90.9456 101.726 91.5038C101.726 92.062 101.926 92.5973 102.284 92.992C102.641 93.3867 103.126 93.6084 103.631 93.6084H129.324C129.829 93.6084 130.314 93.3867 130.671 92.992C131.029 92.5973 131.23 92.062 131.23 91.5038C131.23 90.9456 131.029 90.4103 130.671 90.0156C130.314 89.6209 129.829 89.3992 129.324 89.3992Z" fill="#E6E6E6"/>
<path d="M129.324 100.9H103.631C103.126 100.9 102.641 101.122 102.284 101.516C101.926 101.911 101.726 102.446 101.726 103.005C101.726 103.563 101.926 104.098 102.284 104.493C102.641 104.888 103.126 105.109 103.631 105.109H129.324C129.829 105.109 130.314 104.888 130.671 104.493C131.029 104.098 131.23 103.563 131.23 103.005C131.23 102.446 131.029 101.911 130.671 101.516C130.314 101.122 129.829 100.9 129.324 100.9Z" fill="#E6E6E6"/>
<path d="M129.324 112.401H103.631C103.178 112.4 102.74 112.578 102.395 112.902C102.05 113.226 101.82 113.675 101.748 114.169C101.676 114.663 101.765 115.169 102 115.597C102.235 116.025 102.6 116.346 103.03 116.503C103.224 116.575 103.427 116.611 103.631 116.61H129.324C129.829 116.61 130.314 116.388 130.671 115.994C131.029 115.599 131.23 115.064 131.23 114.506C131.23 113.947 131.029 113.412 130.671 113.017C130.314 112.623 129.829 112.401 129.324 112.401Z" fill="#E6E6E6"/>
<path d="M196.672 89.3992H170.979C170.474 89.3992 169.989 89.6209 169.632 90.0156C169.274 90.4103 169.073 90.9456 169.073 91.5038C169.073 92.062 169.274 92.5973 169.632 92.992C169.989 93.3867 170.474 93.6084 170.979 93.6084H196.672C197.177 93.6084 197.662 93.3867 198.019 92.992C198.377 92.5973 198.577 92.062 198.577 91.5038C198.577 90.9456 198.377 90.4103 198.019 90.0156C197.662 89.6209 197.177 89.3992 196.672 89.3992Z" fill="#E6E6E6"/>
<path d="M196.672 100.9H170.979C170.543 100.899 170.12 101.064 169.78 101.366C169.441 101.668 169.205 102.09 169.114 102.561C169.022 103.032 169.08 103.524 169.277 103.953C169.474 104.383 169.798 104.725 170.196 104.922C170.442 105.046 170.709 105.11 170.979 105.109H196.672C197.177 105.109 197.662 104.888 198.019 104.493C198.377 104.098 198.577 103.563 198.577 103.005C198.577 102.446 198.377 101.911 198.019 101.516C197.662 101.122 197.177 100.9 196.672 100.9Z" fill="#E6E6E6"/>
<path d="M196.672 112.401H170.979C170.474 112.401 169.989 112.623 169.632 113.017C169.274 113.412 169.073 113.947 169.073 114.506C169.073 115.064 169.274 115.599 169.632 115.994C169.989 116.388 170.474 116.61 170.979 116.61H196.672C197.177 116.61 197.662 116.388 198.019 115.994C198.377 115.599 198.577 115.064 198.577 114.506C198.577 113.947 198.377 113.412 198.019 113.017C197.662 112.623 197.177 112.401 196.672 112.401Z" fill="#E6E6E6"/>
<path d="M7.6322 8.61098C8.58623 8.61098 9.35962 7.75677 9.35962 6.70304C9.35962 5.64932 8.58623 4.7951 7.6322 4.7951C6.67818 4.7951 5.90479 5.64932 5.90479 6.70304C5.90479 7.75677 6.67818 8.61098 7.6322 8.61098Z" fill="white"/>
<path d="M14.1891 8.61098C15.1431 8.61098 15.9165 7.75677 15.9165 6.70304C15.9165 5.64932 15.1431 4.7951 14.1891 4.7951C13.2351 4.7951 12.4617 5.64932 12.4617 6.70304C12.4617 7.75677 13.2351 8.61098 14.1891 8.61098Z" fill="white"/>
<path d="M20.746 8.61098C21.7 8.61098 22.4734 7.75677 22.4734 6.70304C22.4734 5.64932 21.7 4.7951 20.746 4.7951C19.7919 4.7951 19.0186 5.64932 19.0186 6.70304C19.0186 7.75677 19.7919 8.61098 20.746 8.61098Z" fill="white"/>
<path d="M54.6645 89.3992H36.2832C35.7778 89.3992 35.2931 89.6209 34.9358 90.0156C34.5784 90.4103 34.3777 90.9456 34.3777 91.5038C34.3777 92.062 34.5784 92.5973 34.9358 92.992C35.2931 93.3867 35.7778 93.6084 36.2832 93.6084H54.2815C54.6457 93.4436 54.9624 93.1725 55.1977 92.8242C55.4331 92.4758 55.5782 92.0633 55.6176 91.6308C55.6569 91.1984 55.589 90.7622 55.4211 90.3691C55.2532 89.976 54.9917 89.6407 54.6645 89.3992Z" fill="#8E8E8E"/>
<path d="M46.1756 100.9H36.2832C35.847 100.899 35.4238 101.064 35.0843 101.366C34.7448 101.668 34.5096 102.09 34.418 102.561C34.3264 103.032 34.3839 103.524 34.581 103.953C34.778 104.383 35.1027 104.725 35.5006 104.922H44.5867C45.162 104.922 45.7137 104.669 46.1206 104.22C46.5274 103.771 46.7561 103.161 46.7563 102.526C46.7594 101.922 46.5514 101.339 46.1756 100.9Z" fill="#8E8E8E"/>
<path d="M60.0564 112.401H36.2832C35.7778 112.401 35.2931 112.623 34.9358 113.017C34.5784 113.412 34.3777 113.947 34.3777 114.506C34.3777 115.064 34.5784 115.599 34.9358 115.994C35.2931 116.388 35.7778 116.61 36.2832 116.61H60.2096C60.5466 116.391 60.8234 116.074 61.0106 115.695C61.1978 115.315 61.2883 114.887 61.2726 114.455C61.2569 114.023 61.1355 113.604 60.9214 113.242C60.7072 112.881 60.4083 112.59 60.0564 112.401Z" fill="#8E8E8E"/>
<path d="M177.306 89.3992H170.979C170.557 89.3986 170.147 89.5528 169.813 89.8375C169.479 90.1222 169.24 90.5214 169.133 90.9723C169.026 91.4232 169.058 91.9005 169.224 92.3292C169.389 92.7579 169.679 93.1139 170.047 93.3412H175.653C176.228 93.341 176.78 93.0884 177.187 92.639C177.594 92.1897 177.822 91.5803 177.823 90.9448C177.824 90.3778 177.641 89.8291 177.306 89.3992Z" fill="#8E8E8E"/>
<path d="M182.081 100.9H170.979C170.543 100.899 170.12 101.064 169.78 101.366C169.441 101.668 169.205 102.09 169.114 102.561C169.022 103.032 169.08 103.524 169.277 103.953C169.474 104.383 169.798 104.725 170.196 104.922H180.492C181.068 104.922 181.619 104.669 182.026 104.22C182.433 103.771 182.662 103.161 182.662 102.526C182.665 101.922 182.457 101.339 182.081 100.9Z" fill="#8E8E8E"/>
<path d="M189.913 112.401H170.979C170.474 112.401 169.989 112.623 169.632 113.017C169.274 113.412 169.073 113.947 169.073 114.506C169.073 115.064 169.274 115.599 169.632 115.994C169.989 116.388 170.474 116.61 170.979 116.61H190.066C190.403 116.391 190.68 116.074 190.867 115.695C191.054 115.315 191.145 114.887 191.129 114.455C191.113 114.023 190.992 113.604 190.778 113.242C190.564 112.881 190.265 112.59 189.913 112.401Z" fill="#8E8E8E"/>
<path d="M127.537 100.9H103.631C103.126 100.9 102.641 101.122 102.284 101.516C101.926 101.911 101.726 102.446 101.726 103.005C101.726 103.563 101.926 104.098 102.284 104.493C102.641 104.888 103.126 105.109 103.631 105.109H127.429C127.778 104.916 128.073 104.621 128.283 104.257C128.493 103.892 128.61 103.472 128.621 103.041C128.633 102.609 128.538 102.182 128.347 101.805C128.156 101.428 127.876 101.115 127.537 100.9Z" fill="#8E8E8E"/>
<path d="M106.196 112.401H103.631C103.178 112.4 102.74 112.578 102.395 112.902C102.05 113.226 101.82 113.675 101.748 114.169C101.676 114.663 101.765 115.169 102 115.597C102.235 116.025 102.6 116.346 103.03 116.503H104.676C105.251 116.503 105.803 116.25 106.209 115.801C106.616 115.352 106.845 114.742 106.845 114.107C106.846 113.789 106.789 113.474 106.678 113.181C106.566 112.888 106.402 112.623 106.196 112.401Z" fill="#8E8E8E"/>
<path d="M117.576 89.3992H103.631C103.126 89.3992 102.641 89.6209 102.284 90.0156C101.926 90.4103 101.726 90.9456 101.726 91.5038C101.726 92.062 101.926 92.5973 102.284 92.992C102.641 93.3867 103.126 93.6084 103.631 93.6084H117.193C117.558 93.4436 117.874 93.1725 118.11 92.8242C118.345 92.4758 118.49 92.0633 118.529 91.6308C118.569 91.1984 118.501 90.7622 118.333 90.3691C118.165 89.976 117.904 89.6407 117.576 89.3992Z" fill="#8E8E8E"/>
<path d="M315.597 207H228.085C227.978 207 227.875 206.953 227.8 206.87C227.724 206.786 227.682 206.673 227.682 206.555C227.682 206.436 227.724 206.323 227.8 206.24C227.875 206.156 227.978 206.109 228.085 206.109H315.597C315.704 206.109 315.806 206.156 315.882 206.24C315.958 206.323 316 206.436 316 206.555C316 206.673 315.958 206.786 315.882 206.87C315.806 206.953 315.704 207 315.597 207Z" fill="#CCCCCC"/>
</g>
<defs>
<clipPath id="clip0_79_52">
<rect width="316" height="207" fill="white"/>
</clipPath>
</defs>
</svg>
